<?xml version="1.0" encoding="utf-8"?>
<!-- Generator: Adobe Illustrator 16.0.0, SVG Export Plug-In . SVG Version: 6.00 Build 0)  -->
<!DOCTYPE svg PUBLIC "-//W3C//DTD SVG 1.1//EN" "http://www.w3.org/Graphics/SVG/1.1/DTD/svg11.dtd">
<svg version="1.1" id="Layer_1" xmlns="http://www.w3.org/2000/svg" xmlns:xlink="http://www.w3.org/1999/xlink" x="0px" y="0px"
	 width="54px" height="54px" viewBox="0 0 54 54" enable-background="new 0 0 54 54" xml:space="preserve">
<g>
	<circle fill="#393939" cx="27" cy="27" r="24.063"/>
	<path fill="#FFFFFF" d="M32.9,33.076c0.574,0.518,1.014,0.905,1.32,1.163c0.306,0.258,0.977,0.81,2.009,1.65l-2.095,2.089
		c-1.264-0.973-2.46-1.956-3.589-2.95c-1.149,0.842-2.407,1.484-3.775,1.925c-1.369,0.438-2.732,0.658-4.092,0.658
		c-1.857,0-3.255-0.438-4.191-1.319c-0.939-0.881-1.407-2.018-1.407-3.417c0-1.493,0.435-2.78,1.307-3.861
		c0.87-1.083,2.1-2.197,3.689-3.346c-0.556-0.861-0.982-1.665-1.279-2.411c-0.297-0.748-0.444-1.426-0.444-2.04
		c0-1.396,0.55-2.612,1.651-3.646c1.101-1.034,2.492-1.55,4.177-1.55c1.493,0,2.604,0.326,3.332,0.976
		c0.727,0.651,1.09,1.513,1.09,2.584c0,1.207-0.402,2.292-1.206,3.259c-0.803,0.967-1.942,1.995-3.416,3.086
		c0.592,0.785,1.331,1.667,2.21,2.642c0.881,0.977,1.788,1.914,2.728,2.813c0.574-0.611,1.081-1.321,1.521-2.125
		c0.441-0.804,0.776-1.712,1.006-2.727l-2.153-0.287l0.314-1.78c0.785-0.076,1.756-0.129,2.915-0.158
		c1.157-0.028,1.956-0.043,2.397-0.043c-0.154,1.685-0.578,3.278-1.277,4.78C34.943,30.546,34.028,31.889,32.9,33.076z
		 M23.569,27.707c-1.034,0.766-1.838,1.499-2.412,2.195c-0.574,0.7-0.861,1.47-0.861,2.313c0,0.823,0.244,1.492,0.732,2.011
		c0.488,0.518,1.258,0.775,2.312,0.775c0.823,0,1.68-0.149,2.57-0.446c0.89-0.298,1.747-0.75,2.57-1.363
		c-0.881-0.862-1.752-1.771-2.613-2.727C25.004,29.506,24.238,28.588,23.569,27.707z M25.872,18.375c-0.738,0-1.34,0.24-1.806,0.718
		c-0.466,0.479-0.699,1.082-0.699,1.809c0,0.383,0.104,0.837,0.31,1.364c0.207,0.527,0.486,1.086,0.839,1.68
		c1.004-0.708,1.768-1.359,2.29-1.952c0.521-0.594,0.782-1.254,0.782-1.981C27.588,18.921,27.016,18.375,25.872,18.375z"/>
</g>
</svg>
